<?xml version="1.0" encoding="UTF-8" standalone="no"?><svg width="18" height="22" viewBox="0 0 18 22" fill="none" xmlns="http://www.w3.org/2000/svg">
<path d="M8.8 0C6.46609 0 4.22777 0.927133 2.57745 2.57745C0.927133 4.22777 0 6.46609 0 8.8C0 17.677 8.8 22 8.8 22C8.8 22 17.6 17.677 17.6 8.8C17.6 6.46609 16.6729 4.22777 15.0225 2.57745C13.3722 0.927133 11.1339 0 8.8 0ZM8.8 12.1C7.92478 12.1 7.08553 11.7523 6.46666 11.1335C5.84779 10.5146 5.5 9.67521 5.5 8.8C5.5 7.92479 5.84779 7.08547 6.46666 6.4666C7.08553 5.84773 7.92478 5.5 8.8 5.5C9.67521 5.5 10.5146 5.84773 11.1335 6.4666C11.7523 7.08547 12.1 7.92479 12.1 8.8C12.1 9.67521 11.7523 10.5146 11.1335 11.1335C10.5146 11.7523 9.67521 12.1 8.8 12.1Z" fill="#352B2A"/>
</svg>
