<?xml version="1.0" encoding="UTF-8" standalone="no"?><svg width="126" height="32" viewBox="0 0 126 32" fill="none" xmlns="http://www.w3.org/2000/svg">
<path d="M14.5158 6.27202V2.27734H1.92578V29.7231H14.5158V25.7285C11.9367 25.7285 9.46325 24.7035 7.63961 22.8791C5.81594 21.0547 4.79142 18.5803 4.79142 16.0002C4.79142 13.4202 5.81594 10.9457 7.63961 9.12136C9.46325 7.29696 11.9367 6.27202 14.5158 6.27202Z" fill="#7C7C80"/>
<path d="M14.5156 6.27197V25.7284C17.0947 25.7284 19.5682 24.7034 21.3918 22.879C23.2155 21.0546 24.24 18.5803 24.24 16.0002C24.24 13.4201 23.2155 10.9457 21.3918 9.12131C19.5682 7.29691 17.0947 6.27197 14.5156 6.27197Z" fill="#7C7C80"/>
<path d="M31.3057 8.71582H34.1243V22.2977H31.3057V8.71582Z" fill="#7C7C80"/>
<path d="M35.7026 17.6449C35.7026 16.6678 35.9926 15.7127 36.5359 14.9006C37.0791 14.0885 37.8512 13.456 38.7542 13.0833C39.6572 12.7107 40.6504 12.6147 41.608 12.8073C42.5656 13 43.4444 13.4728 44.1331 14.1657C44.8218 14.8587 45.2894 15.7406 45.4766 16.6997C45.6636 17.6588 45.562 18.6518 45.1843 19.553C44.8066 20.4541 44.17 21.2229 43.3552 21.7616C42.5403 22.3005 41.5838 22.5851 40.6071 22.5796C39.9592 22.5846 39.3169 22.4603 38.7177 22.2136C38.1186 21.9671 37.5746 21.6033 37.1177 21.1438C36.6609 20.6842 36.3005 20.1379 36.0575 19.5371C35.8145 18.9363 35.6939 18.293 35.7026 17.6449ZM42.768 17.6449C42.7569 17.2237 42.6219 16.815 42.3799 16.4701C42.1379 16.1252 41.7996 15.8593 41.4073 15.7057C41.015 15.5521 40.5862 15.5176 40.1745 15.6066C39.7627 15.6955 39.3863 15.9039 39.0923 16.2058C38.7983 16.5076 38.5998 16.8894 38.5216 17.3036C38.4435 17.7177 38.489 18.1456 38.6527 18.5339C38.8164 18.9222 39.0908 19.2537 39.4418 19.4867C39.7927 19.7198 40.2046 19.8442 40.6258 19.8444C40.9127 19.85 41.1976 19.7963 41.4627 19.6867C41.7278 19.5772 41.9675 19.4142 42.1668 19.2078C42.3661 19.0014 42.5206 18.7559 42.6209 18.4871C42.7211 18.2182 42.7648 17.9315 42.7492 17.6449H42.768Z" fill="#7C7C80"/>
<path d="M56.6645 12.9922V21.8369C56.6645 24.9575 54.2217 26.2828 51.7507 26.2828C50.879 26.3543 50.0048 26.1811 49.2264 25.7825C48.4478 25.384 47.796 24.776 47.3441 24.0269L49.7212 22.6546C49.9138 23.0432 50.2202 23.3637 50.5996 23.5736C50.979 23.7835 51.4133 23.8728 51.8446 23.8295C52.1194 23.8634 52.3983 23.8361 52.6613 23.7497C52.9243 23.6631 53.165 23.5196 53.366 23.3291C53.5672 23.1387 53.7237 22.9063 53.8245 22.6483C53.9253 22.3903 53.9679 22.1132 53.9492 21.8369V20.9816C53.6212 21.3794 53.205 21.6953 52.7337 21.9041C52.2623 22.113 51.7489 22.209 51.2339 22.1847C49.988 22.1847 48.7931 21.6895 47.9121 20.8082C47.0311 19.9269 46.5361 18.7315 46.5361 17.4851C46.5361 16.2386 47.0311 15.0433 47.9121 14.162C48.7931 13.2806 49.988 12.7854 51.2339 12.7854C51.7489 12.7611 52.2623 12.8572 52.7337 13.066C53.205 13.2749 53.6212 13.5907 53.9492 13.9885V13.0486L56.6645 12.9922ZM53.9492 17.4569C53.9679 17.0072 53.8518 16.5621 53.6157 16.179C53.3795 15.7959 53.0344 15.4922 52.6242 15.307C52.2142 15.1217 51.7583 15.0634 51.3148 15.1396C50.8714 15.2157 50.4608 15.4228 50.136 15.7342C49.8112 16.0456 49.587 16.4471 49.4921 16.8871C49.3972 17.3271 49.436 17.7853 49.6035 18.203C49.7711 18.6207 50.0597 18.9787 50.4323 19.231C50.8049 19.4832 51.2444 19.6183 51.6943 19.6187C51.9879 19.6398 52.2826 19.5991 52.5594 19.4993C52.8363 19.3994 53.0892 19.2425 53.3017 19.0388C53.5142 18.8351 53.6816 18.589 53.7931 18.3165C53.9047 18.044 53.9578 17.7512 53.9492 17.4569Z" fill="#7C7C80"/>
<path d="M58.2523 17.6451C58.2523 16.6687 58.5419 15.7143 59.0843 14.9026C59.6267 14.0908 60.3976 13.4584 61.2994 13.0852C62.2013 12.712 63.1936 12.6148 64.1507 12.806C65.1078 12.9971 65.9867 13.468 66.6762 14.1591C67.3657 14.8502 67.8347 15.7304 68.0239 16.6881C68.2132 17.646 68.1142 18.6385 67.7394 19.54C67.3646 20.4415 66.7309 21.2115 65.9186 21.7526C65.1061 22.2937 64.1515 22.5816 63.1755 22.5797C62.5265 22.586 61.8826 22.4626 61.2819 22.2167C60.6811 21.9708 60.1354 21.6074 59.6769 21.1478C59.2183 20.6882 58.8561 20.1416 58.6115 19.5401C58.3669 18.9387 58.2448 18.2944 58.2523 17.6451ZM65.3177 17.6451C65.3066 17.2234 65.1713 16.8144 64.9289 16.4692C64.6865 16.1242 64.3476 15.8583 63.9548 15.705C63.562 15.5517 63.1327 15.5177 62.7207 15.6075C62.3087 15.6972 61.9323 15.9066 61.6387 16.2093C61.3451 16.5121 61.1473 16.8948 61.0703 17.3095C60.9931 17.7242 61.04 18.1524 61.2051 18.5405C61.3702 18.9287 61.6461 19.2595 61.9984 19.4915C62.3505 19.7233 62.7633 19.8462 63.1849 19.8445C63.4718 19.8501 63.7566 19.7965 64.0218 19.6869C64.2869 19.5774 64.5266 19.4143 64.7259 19.2079C64.9252 19.0015 65.0797 18.7561 65.18 18.4872C65.2802 18.2183 65.3239 17.9317 65.3083 17.6451H65.3177Z" fill="#7C7C80"/>
<path d="M69.4043 10.5017C69.4043 10.1708 69.5024 9.84731 69.6862 9.57219C69.8699 9.29704 70.1311 9.0826 70.4367 8.95597C70.7423 8.82934 71.0786 8.79621 71.403 8.86076C71.7273 8.92531 72.0254 9.08466 72.2593 9.31864C72.4932 9.55264 72.6524 9.85078 72.717 10.1752C72.7815 10.4998 72.7484 10.8362 72.6218 11.142C72.4952 11.4476 72.2808 11.7089 72.0058 11.8928C71.7308 12.0766 71.4075 12.1747 71.0767 12.1747C70.6346 12.1699 70.2121 11.992 69.8995 11.6793C69.5869 11.3666 69.4092 10.9439 69.4043 10.5017ZM69.6768 12.9925H72.4954V22.2977H69.6768V12.9925Z" fill="#7C7C80"/>
<path d="M84.5594 17.645C84.591 18.2638 84.4999 18.8828 84.2914 19.4663C84.083 20.0498 83.7613 20.5864 83.3448 21.0449C82.9282 21.5036 82.4251 21.8753 81.8644 22.1386C81.3038 22.402 80.6965 22.5518 80.0777 22.5796C79.5526 22.6145 79.0264 22.5304 78.5384 22.3335C78.0503 22.1365 77.613 21.8318 77.2591 21.4422V26.0385H74.4404V12.9923H77.2591V13.8665C77.6135 13.478 78.0511 13.1748 78.5392 12.9794C79.0273 12.784 79.5533 12.7017 80.0777 12.7385C80.6941 12.7663 81.2989 12.9153 81.8576 13.1768C82.4164 13.4384 82.9182 13.8076 83.3343 14.2632C83.7505 14.7188 84.0729 15.2519 84.2831 15.8322C84.4933 16.4124 84.5872 17.0284 84.5594 17.645ZM81.7407 17.645C81.7297 17.2084 81.5899 16.7848 81.3393 16.4274C81.0886 16.0699 80.738 15.7943 80.3314 15.6354C79.9249 15.4764 79.4805 15.441 79.0538 15.5336C78.6273 15.6262 78.2375 15.8427 77.9334 16.156C77.6293 16.4693 77.4244 16.8654 77.3444 17.2947C77.2643 17.724 77.3127 18.1674 77.4835 18.5693C77.6544 18.9711 77.9399 19.3136 78.3044 19.5538C78.669 19.7941 79.0963 19.9213 79.5328 19.9196C79.8318 19.9323 80.1301 19.8816 80.4081 19.7709C80.6862 19.6602 80.9377 19.4919 81.1462 19.2771C81.3547 19.0624 81.5154 18.8059 81.6179 18.5246C81.7204 18.2433 81.7622 17.9436 81.7407 17.645Z" fill="#7C7C80"/>
<path d="M93.1381 19.5059C93.1381 21.6489 91.259 22.5607 89.2671 22.5607C88.4547 22.6338 87.6391 22.4615 86.9256 22.0661C86.2121 21.6707 85.6335 21.0702 85.2646 20.3425L87.6887 18.9702C87.7847 19.3055 87.9929 19.5978 88.2785 19.798C88.5642 19.9982 88.9098 20.0941 89.2577 20.0699C89.9248 20.0699 90.2631 19.8631 90.2631 19.4871C90.2631 18.4626 85.6874 19.0078 85.6874 15.7838C85.6874 13.7536 87.3974 12.7385 89.3329 12.7385C90.0686 12.7055 90.7996 12.8725 91.4479 13.2217C92.0964 13.5709 92.6383 14.0892 93.016 14.7217L90.5919 16C90.4848 15.7575 90.3099 15.5513 90.0881 15.4062C89.8663 15.261 89.6073 15.1833 89.3423 15.1823C88.8537 15.1823 88.5625 15.3703 88.5625 15.6992C88.5625 16.7707 93.1381 16.0658 93.1381 19.5059Z" fill="#7C7C80"/>
<path d="M103.35 12.9927V22.2979H100.532V21.4238C100.211 21.8108 99.8045 22.1169 99.3451 22.3178C98.8847 22.5186 98.3839 22.6084 97.8822 22.5799C96.0031 22.5799 94.3965 21.2358 94.3965 18.7262V12.9927H97.2151V18.3032C97.1926 18.5253 97.2189 18.7494 97.2922 18.9603C97.3655 19.1712 97.4829 19.3637 97.637 19.5246C97.792 19.6854 97.9799 19.8108 98.1876 19.8921C98.3952 19.9733 98.6179 20.0085 98.8406 19.9951C99.8553 19.9951 100.569 19.3936 100.569 18.1153V12.9927H103.35Z" fill="#7C7C80"/>
<path d="M119.323 16.5829V22.2976H116.504V16.8272C116.504 15.8873 116.063 15.3046 115.17 15.3046C114.278 15.3046 113.714 15.9531 113.714 17.0528V22.2976H110.895V16.8272C110.895 15.8873 110.454 15.3046 109.561 15.3046C108.669 15.3046 108.105 15.9531 108.105 17.0528V22.2976H105.286V12.9924H108.105V13.8477C108.397 13.4698 108.778 13.1706 109.214 12.9769C109.65 12.7833 110.129 12.7013 110.604 12.7386C111.08 12.7137 111.556 12.8133 111.982 13.0275C112.409 13.2417 112.772 13.5633 113.037 13.9605C113.347 13.5454 113.757 13.2157 114.229 13.002C114.7 12.7883 115.218 12.6977 115.734 12.7386C117.933 12.7386 119.323 14.2612 119.323 16.5829Z" fill="#7C7C80"/>
<path d="M121.691 12.936C122.833 12.936 123.758 12.0101 123.758 10.8681C123.758 9.72612 122.833 8.80029 121.691 8.80029C120.549 8.80029 119.624 9.72612 119.624 10.8681C119.624 12.0101 120.549 12.936 121.691 12.936Z" fill="#7C7C80"/>
</svg>
