<?xml version="1.0" encoding="UTF-8" standalone="no"?><svg width="93" height="36" viewBox="0 0 93 36" fill="none" xmlns="http://www.w3.org/2000/svg">
<path d="M42.6348 31.3193H45.0567V22.1802H42.6348V31.3193ZM42.6348 20.755H45.0567V18.5815H42.6348V20.755Z" fill="#7C7C80"/>
<path d="M46.6172 34.3122H49.0391V30.286H49.0748C49.5912 31.0698 50.4281 31.5865 51.7103 31.5865C54.061 31.5865 55.6637 29.7159 55.6637 26.7586C55.6637 23.9081 54.1144 21.9307 51.6925 21.9307C50.446 21.9307 49.5911 22.5186 49.0035 23.3202H48.9501V22.1801H46.6172V34.3122ZM51.1939 29.5733C49.7515 29.5733 48.9857 28.4867 48.9857 26.8298C48.9857 25.1909 49.5912 23.8903 51.1048 23.8903C52.6007 23.8903 53.2062 25.1017 53.2062 26.8298C53.2062 28.5579 52.4227 29.5733 51.1939 29.5733Z" fill="#7C7C80"/>
<path d="M60.4957 31.5865C62.7751 31.5865 64.3422 30.4819 64.3422 28.6469C64.3422 26.5091 62.6505 26.0816 61.119 25.7609C59.8189 25.4937 58.608 25.4224 58.608 24.6386C58.608 23.9794 59.2312 23.623 60.1752 23.623C61.208 23.623 61.8313 23.9794 61.9381 24.9592H64.1285C63.9504 23.1243 62.6149 21.9307 60.2108 21.9307C58.1272 21.9307 56.4888 22.8749 56.4888 24.8523C56.4888 26.8476 58.0916 27.293 59.7299 27.6137C60.9765 27.863 62.134 27.9522 62.134 28.8251C62.134 29.4665 61.5285 29.8762 60.46 29.8762C59.3738 29.8762 58.6258 29.413 58.4655 28.3619H56.2217C56.3642 30.3038 57.8423 31.5865 60.4957 31.5865Z" fill="#7C7C80"/>
<path d="M73.5372 31.3193V22.1802H71.1153V27.4534C71.1153 28.6648 70.4208 29.52 69.2811 29.52C68.2482 29.52 67.7674 28.9321 67.7674 27.8631V22.1802H65.3633V28.2729C65.3633 30.2682 66.503 31.5687 68.5332 31.5687C69.8153 31.5687 70.5276 31.0877 71.151 30.2504H71.2044V31.3193H73.5372Z" fill="#7C7C80"/>
<path d="M75.1035 31.3192H77.5255V26.0103C77.5255 24.7989 78.1844 24.015 79.1638 24.015C80.0542 24.015 80.5707 24.5494 80.5707 25.5828V31.3192H82.9926V26.0103C82.9926 24.7989 83.6158 24.015 84.6309 24.015C85.5213 24.015 86.0377 24.5494 86.0377 25.5828V31.3192H88.4596V25.173C88.4596 23.1777 87.3733 21.9307 85.4501 21.9307C84.2925 21.9307 83.3309 22.5364 82.7076 23.534H82.672C82.2268 22.572 81.3008 21.9307 80.1432 21.9307C78.8789 21.9307 77.9885 22.572 77.4898 23.4093H77.4364V22.1801H75.1035V31.3192Z" fill="#7C7C80"/>
<path d="M42.6699 15.666H45.0918V2.92822H42.6699V15.666Z" fill="#7C7C80"/>
<path d="M51.0138 15.9331C53.8453 15.9331 55.7864 13.8309 55.7864 11.1052C55.7864 8.37952 53.8453 6.27734 51.0138 6.27734C48.1823 6.27734 46.2412 8.37952 46.2412 11.1052C46.2412 13.8309 48.1823 15.9331 51.0138 15.9331ZM51.0138 14.0804C49.5179 14.0804 48.6988 12.8868 48.6988 11.1052C48.6988 9.32371 49.5179 8.1123 51.0138 8.1123C52.4919 8.1123 53.3289 9.32371 53.3289 11.1052C53.3289 12.8868 52.4919 14.0804 51.0138 14.0804Z" fill="#7C7C80"/>
<path d="M60.9366 18.7836C62.2901 18.7836 63.4654 18.4629 64.2311 17.7503C64.9078 17.1268 65.3175 16.2538 65.3175 14.9711V6.52675H62.9846V7.48877H62.949C62.3969 6.72271 61.5599 6.27734 60.4202 6.27734C58.1052 6.27734 56.4668 8.02323 56.4668 10.749C56.4668 13.5103 58.4613 15.1136 60.4915 15.1136C61.649 15.1136 62.3435 14.6505 62.8778 14.0448H62.9312V15.0424C62.9312 16.2894 62.2723 16.9486 60.901 16.9486C59.7791 16.9486 59.2627 16.5032 59.0668 15.9331H56.6627C56.912 17.7147 58.4435 18.7836 60.9366 18.7836ZM60.901 13.1718C59.6545 13.1718 58.8353 12.2632 58.8353 10.7133C58.8353 9.18124 59.6545 8.21919 60.8832 8.21919C62.3435 8.21919 63.0558 9.35933 63.0558 10.6955C63.0558 12.0494 62.4325 13.1718 60.901 13.1718Z" fill="#7C7C80"/>
<path d="M71.2042 15.9331C74.0357 15.9331 75.9768 13.8309 75.9768 11.1052C75.9768 8.37952 74.0357 6.27734 71.2042 6.27734C68.3728 6.27734 66.4316 8.37952 66.4316 11.1052C66.4316 13.8309 68.3728 15.9331 71.2042 15.9331ZM71.2042 14.0804C69.7083 14.0804 68.8891 12.8868 68.8891 11.1052C68.8891 9.32371 69.7083 8.1123 71.2042 8.1123C72.6823 8.1123 73.5193 9.32371 73.5193 11.1052C73.5193 12.8868 72.6823 14.0804 71.2042 14.0804Z" fill="#7C7C80"/>
<path d="M78.1006 12.1734H88.5716V10.0898H78.1006V12.1734Z" fill="#7C7C80"/>
<path d="M89.3398 20.6278C89.3398 20.218 89.672 19.8857 90.0821 19.8857H91.5656C91.9757 19.8857 92.3079 20.218 92.3079 20.6278C92.3079 21.0375 91.9757 21.3698 91.5656 21.3698H90.0821C89.672 21.3698 89.3398 21.0375 89.3398 20.6278Z" fill="#7C7C80"/>
<path fill-rule="evenodd" clip-rule="evenodd" d="M18.1762 0.0961914C27.9595 0.0961914 35.8905 8.03028 35.8905 17.8175C35.8905 27.6047 27.9595 35.5388 18.1762 35.5388C8.39287 35.5388 0.461914 27.6047 0.461914 17.8175C0.461914 8.03028 8.39287 0.0961914 18.1762 0.0961914ZM17.5359 1.42227C15.5151 1.70678 13.5908 3.33129 12.097 6.04824C11.6637 6.83634 11.2728 7.70701 10.932 8.64711C12.9631 8.13649 15.1943 7.83545 17.5359 7.78889V1.42227ZM9.4349 9.07274C9.85854 7.74256 10.3769 6.51874 10.975 5.43088C11.7154 4.08401 12.5942 2.92092 13.5844 2.02761C8.20022 3.59192 3.95626 7.83755 2.39257 13.2239C3.28552 12.2333 4.44815 11.3542 5.79449 10.6134C6.88193 10.0151 8.10525 9.49654 9.4349 9.07274ZM9.00941 10.5705C8.49903 12.6024 8.19812 14.8345 8.15157 17.177H1.78746C2.07187 15.1552 3.69573 13.2302 6.41161 11.7359C7.1994 11.3024 8.06972 10.9113 9.00941 10.5705ZM9.43242 17.177C9.4853 14.6206 9.85314 12.2206 10.4618 10.1C12.5815 9.49114 14.9806 9.12307 17.5359 9.07017V11.8373C16.5826 14.2787 14.6383 16.2236 12.1977 17.177H9.43242ZM8.15157 18.458H1.78746C2.07187 20.4798 3.69573 22.4047 6.41161 23.8991C7.1994 24.3325 8.06972 24.7237 9.00941 25.0645C8.49903 23.0326 8.19812 20.8005 8.15157 18.458ZM10.4618 25.5349C9.85314 23.4144 9.4853 21.0144 9.43242 18.458H12.1977C14.6383 19.4113 16.5827 21.3563 17.5359 23.7977V26.5648C14.9806 26.5119 12.5815 26.1438 10.4618 25.5349ZM9.4349 26.5622C8.10525 26.1384 6.88193 25.6199 5.79449 25.0216C4.44815 24.2808 3.28552 23.4016 2.39257 22.4111C3.95626 27.7974 8.20022 32.0431 13.5844 33.6073C12.5942 32.714 11.7154 31.551 10.975 30.2041C10.3769 29.1162 9.85854 27.8924 9.4349 26.5622ZM17.5359 34.2127C15.5151 33.9282 13.5908 32.3037 12.097 29.5867C11.6637 28.7987 11.2728 27.9279 10.932 26.9879C12.9631 27.4985 15.1943 27.7995 17.5359 27.8461V34.2127ZM22.768 33.6073C23.7581 32.714 24.6369 31.551 25.3775 30.2041C25.9755 29.1162 26.4938 27.8924 26.9175 26.5622C28.2471 26.1384 29.4705 25.6199 30.5579 25.0216C31.9042 24.2808 33.0669 23.4016 33.9598 22.4111C32.3962 27.7974 28.1522 32.0431 22.768 33.6073ZM25.4204 26.9879C25.0796 27.9279 24.6887 28.7987 24.2554 29.5867C22.7617 32.3037 20.8374 33.9282 18.8165 34.2127V27.8461C21.158 27.7995 23.3892 27.4985 25.4204 26.9879ZM27.343 25.0645C28.2826 24.7237 29.153 24.3325 29.9408 23.8991C32.6566 22.4047 34.2805 20.4798 34.5649 18.458H28.2008C28.1543 20.8005 27.8533 23.0326 27.343 25.0645ZM26.9201 18.458C26.8672 21.0144 26.4992 23.4144 25.8906 25.5349C23.7709 26.1438 21.3718 26.5119 18.8165 26.5648V23.7998C19.7694 21.3574 21.7142 19.4116 24.1555 18.458H26.9201ZM28.2008 17.177H34.5649C34.2805 15.1552 32.6566 13.2302 29.9408 11.7359C29.153 11.3024 28.2826 10.9113 27.343 10.5705C27.8533 12.6024 28.1543 14.8345 28.2008 17.177ZM25.8906 10.1C26.4992 12.2206 26.8672 14.6206 26.9201 17.177H24.1555C21.7142 16.2234 19.7694 14.2776 18.8165 11.8352V9.07017C21.3718 9.12307 23.7709 9.49114 25.8906 10.1ZM26.9175 9.07274C28.2471 9.49654 29.4705 10.0151 30.5579 10.6134C31.9042 11.3542 33.0669 12.2333 33.9598 13.2239C32.3962 7.83755 28.1522 3.59192 22.768 2.02761C23.7581 2.92092 24.6369 4.08401 25.3775 5.43088C25.9755 6.51874 26.4938 7.74256 26.9175 9.07274ZM18.8165 1.42227C20.8374 1.70678 22.7617 3.33129 24.2554 6.04824C24.6887 6.83635 25.0796 7.70701 25.4204 8.64711C23.3892 8.13649 21.158 7.83545 18.8165 7.78889V1.42227Z" fill="#7C7C80"/>
</svg>
